<?xml version="1.0" encoding="UTF-8"?>
<svg id="icons" xmlns="http://www.w3.org/2000/svg" viewBox="0 0 429.47 405.33">
  <defs>
    <style>
      .cls-1 {
        fill: #ecdb94;
      }

      .cls-1, .cls-2, .cls-3, .cls-4, .cls-5, .cls-6, .cls-7, .cls-8, .cls-9, .cls-10, .cls-11, .cls-12, .cls-13, .cls-14, .cls-15, .cls-16, .cls-17, .cls-18, .cls-19, .cls-20, .cls-21, .cls-22, .cls-23, .cls-24, .cls-25, .cls-26, .cls-27, .cls-28, .cls-29, .cls-30, .cls-31, .cls-32, .cls-33, .cls-34 {
        fill-rule: evenodd;
      }

      .cls-2 {
        fill: #342e26;
      }

      .cls-3 {
        fill: #60462d;
      }

      .cls-4 {
        fill: #ccb066;
      }

      .cls-5 {
        fill: #2394fd;
      }

      .cls-6 {
        fill: #9e9e9e;
      }

      .cls-7 {
        fill: #fdba02;
      }

      .cls-8 {
        fill: #88653f;
      }

      .cls-9 {
        fill: #97c4c4;
      }

      .cls-10 {
        fill: #f0c17d;
      }

      .cls-11 {
        fill: #e86c00;
      }

      .cls-12 {
        fill: #e6e6e6;
      }

      .cls-13 {
        fill: #c1a963;
      }

      .cls-14 {
        fill: #a84e00;
      }

      .cls-15 {
        fill: #0f4283;
      }

      .cls-16 {
        fill: #f97600;
      }

      .cls-17 {
        fill: #e0e0e0;
      }

      .cls-18 {
        fill: #fafafa;
      }

      .cls-19 {
        fill: #0c4457;
      }

      .cls-20 {
        fill: #b3b3b3;
      }

      .cls-21 {
        fill: #987146;
      }

      .cls-22 {
        fill: #d66300;
      }

      .cls-23 {
        fill: #c45b00;
      }

      .cls-24 {
        fill: #fdca01;
      }

      .cls-25 {
        fill: #4d1d1d;
      }

      .cls-26 {
        fill: #cccac8;
      }

      .cls-27 {
        fill: #ffdba7;
      }

      .cls-28 {
        fill: #dfc373;
      }

      .cls-29 {
        fill: #baffff;
        opacity: .5;
      }

      .cls-30 {
        fill: #b5e8e8;
      }

      .cls-31 {
        fill: #f0f0f0;
      }

      .cls-32 {
        fill: #0d3569;
      }

      .cls-33 {
        fill: #ccc;
      }
    </style>
  </defs>
  <polygon class="cls-19" points="63.96 361.19 47.49 370.36 65.43 379.93 81.84 370.8 63.96 361.19"/>
  <polygon class="cls-19" points="16.47 356.17 0 365.34 47.97 391.57 64.38 382.44 16.47 356.17"/>
  <polygon class="cls-5" points="384.26 305.43 368.72 314.6 413.99 340.84 429.47 331.7 384.26 305.43"/>
  <g>
    <polygon class="cls-6" points="78.51 355.39 78.47 370.31 65.56 377.81 65.61 362.89 78.51 355.39"/>
    <polygon class="cls-20" points="65.61 362.89 65.56 377.81 52.58 370.31 52.62 355.39 65.61 362.89"/>
    <polygon class="cls-33" points="78.51 355.39 65.61 362.89 52.62 355.39 65.52 347.9 78.51 355.39"/>
  </g>
  <polygon class="cls-19" points="296.92 364.37 305.32 369.24 287.9 379.4 279.56 374.57 296.92 364.37"/>
  <g>
    <polygon class="cls-20" points="288.84 372.3 289.1 372.1 288.81 377.1 281.92 373.11 281.94 368.3 288.84 372.3"/>
    <polygon class="cls-6" points="288.84 372.3 303.25 363.89 303.22 368.7 288.81 377.1 288.84 372.3"/>
    <polygon class="cls-33" points="296.31 359.86 303.25 363.89 288.84 372.3 281.94 368.3 296.31 359.86"/>
  </g>
  <polygon class="cls-19" points="85.92 369.53 94.31 374.4 76.89 384.56 68.55 379.72 85.92 369.53"/>
  <polygon class="cls-19" points="115.95 361.46 124.34 366.33 106.92 376.49 98.58 371.65 115.95 361.46"/>
  <polygon class="cls-19" points="107.35 375.55 115.74 380.42 98.32 390.58 89.99 385.74 107.35 375.55"/>
  <polygon class="cls-19" points="85.02 383.58 93.42 388.45 76 398.62 67.66 393.78 85.02 383.58"/>
  <path class="cls-5" d="m150.14,341.97c-12.93-5.42-25.82-4.07-28.79,3.01-2.97,7.08,5.12,17.21,18.05,22.63,12.93,5.42,25.82,4.07,28.79-3.01,2.97-7.08-5.12-17.21-18.05-22.63Z"/>
  <path class="cls-5" d="m66.24,303.7c-12.93-5.42-25.82-4.07-28.79,3.01-2.97,7.08,5.12,17.21,18.05,22.63,12.93,5.42,25.82,4.07,28.79-3.01,2.97-7.08-5.12-17.21-18.05-22.63Z"/>
  <path class="cls-5" d="m345.46,334.59c12.93-5.42,25.82-4.07,28.79,3.01,2.97,7.08-5.12,17.21-18.05,22.63-12.93,5.42-25.82,4.07-28.79-3.01-2.97-7.08,5.12-17.21,18.05-22.63Z"/>
  <g>
    <polygon class="cls-2" points="293.34 15.61 287.64 12.29 287.62 6.64 293.33 9.96 293.34 15.61"/>
    <polygon class="cls-3" points="288.76 236.55 283.05 233.24 282.68 3.83 288.39 7.14 288.76 236.55"/>
    <polygon class="cls-8" points="293.31 4.3 293.68 233.71 288.76 236.55 288.39 7.14 293.31 4.3"/>
    <polygon class="cls-21" points="288.39 7.14 282.68 3.83 287.61 .99 293.31 4.3 288.39 7.14"/>
  </g>
  <path class="cls-5" d="m84.54,308.78l53.29,30.9c17.86,10.36,6.16,20.51-10.54,10.83l-53.29-30.9c-14.69-8.52-4.44-19.51,10.54-10.83Z"/>
  <polygon class="cls-5" points="203.62 372.36 36.41 275.81 203.85 179.15 370.05 275.73 203.62 372.36"/>
  <g>
    <polygon class="cls-33" points="355.72 122.1 204.38 34.71 204.83 191.28 345.34 272.94 355.72 122.1"/>
    <polygon class="cls-20" points="204.83 191.28 204.38 34.71 46.69 125.76 47.07 261.53 64.17 272.49 204.83 191.28"/>
    <polygon class="cls-17" points="361.1 117.36 204.42 26.31 46.73 117.36 53.94 121.56 204.38 34.7 353.83 121.56 361.1 117.36"/>
  </g>
  <g>
    <polygon class="cls-33" points="250.45 286.35 187.57 250.05 188.02 93.47 338.47 180.34 338.47 180.34 324.67 256.3 250.45 286.35"/>
    <polygon class="cls-17" points="338.46 180.33 188.02 93.47 195.24 89.28 345.67 176.13 338.46 180.33"/>
  </g>
  <g>
    <path class="cls-20" d="m360.87,117.44l-.44,156.57-156.67,91.05.44-156.57,156.67-91.05h0Zm-40.77,138.43l-.21-76.05-59.82,34.38c.09,25.35.18,50.68.27,76.01,20.12-11.62,39.63-22.73,59.76-34.35Z"/>
    <path class="cls-33" d="m204.19,208.49l-.44,156.57-157.7-91.05.44-156.57,157.7,91.05h0Zm-111.54,49.76l58.67,34,.26-73.23-58.39-33.71-.54,72.94Z"/>
    <polygon class="cls-17" points="360.87 117.44 204.19 208.49 46.5 117.44 53.71 113.25 204.15 200.1 353.6 113.25 360.87 117.44"/>
  </g>
  <polygon class="cls-17" points="91.13 184.12 90.93 260.17 97.53 256.44 97.57 187.83 91.13 184.12"/>
  <polygon class="cls-17" points="151.44 295.14 151.35 287.27 97.54 256.44 90.93 260.17 151.44 295.14"/>
  <g>
    <g>
      <path class="cls-26" d="m78.5,251.16c.6,1.5,2.03,4.67,2.63,7.38.48,2.19.41,4.06-1.09,4.66-2.09.84-3.43-.06-4.58-1.85-1.42-2.21-2.43-5.64-2.77-6.79-.06-.2-1.85-4-1.85-4,2.36-1.73,2.06-3.94,3.09-4.29,2.17-.72,2.9.7,4.58,4.88Z"/>
      <g>
        <path class="cls-10" d="m80.41,245.43c-.83,3.88-2.77,9.38-3.67,13.21-1.46,6.21,4.12,5.96,5.14,2.31.91-3.26,1.69-10.99,1.73-14.29-.32-1.71-2.17-1.91-3.2-1.23Z"/>
        <path class="cls-26" d="m79.67,248.11c-.18,1.47,3.79,1.6,3.93.87.02-1.88-.07-3.46.19-5.3.19-1.34.41-2.46.56-3.66.2-1.64-.8-2.66-1.48-4.95l-1.95.26c-.79,3.52-1.22,4.71-1.09,6.69.04.64.22,1.26.39,2.16.26,1.42-.18,2.52-.56,3.93Z"/>
      </g>
    </g>
    <g>
      <polygon class="cls-18" points="130.46 312.19 130.52 308.19 81.48 279.81 78.08 281.92 130.46 312.19"/>
      <polygon class="cls-12" points="78.08 281.95 81.56 279.92 81.79 217.13 78.23 215.02 78.08 281.95"/>
      <g>
        <polygon class="cls-30" points="100.34 291.66 80.81 280.35 78.81 281.49 98.54 292.89 100.34 291.66"/>
        <polygon class="cls-9" points="78.81 281.52 80.81 280.36 81.05 215.86 79.05 214.7 78.81 281.52"/>
        <polygon class="cls-29" points="78.79 281.51 98.54 292.91 98.54 225.95 78.99 214.67 78.79 281.51"/>
      </g>
      <polygon class="cls-12" points="134.2 243.42 132.89 270.11 134.47 319.11 138.78 316.62 138.51 240.93 134.2 243.42"/>
      <polygon class="cls-18" points="134.8 243.17 138.52 240.95 77.69 206.08 74.29 208.2 134.8 243.17"/>
      <g>
        <polygon class="cls-12" points="101.81 295.67 104.71 293.98 104.93 230.51 101.73 228.67 100.92 233.1 101.81 295.67"/>
        <polygon class="cls-31" points="96.82 225.83 96.58 292.64 101.81 295.67 102.05 228.85 96.82 225.83"/>
      </g>
      <g>
        <polygon class="cls-30" points="133.35 311.02 104.28 294.23 102.28 295.36 131.55 312.26 133.35 311.02"/>
        <polygon class="cls-9" points="102.28 295.4 104.28 294.23 104.52 229.73 102.52 228.58 102.28 295.4"/>
        <polygon class="cls-29" points="102.27 295.39 132.95 313.12 132.95 246.16 102.46 228.54 102.27 295.39"/>
      </g>
      <path class="cls-31" d="m74.08,284.25l.21-76.05,60.45,34.9c-.09,25.35-.18,50.68-.27,76.01-20.12-11.62-40.26-23.24-60.39-34.87h0Zm3.98-2.31l52.44,30.28.24-66.82-52.49-30.3-.19,66.85Z"/>
    </g>
    <g>
      <path class="cls-22" d="m151.58,344.74l2.84,1.53c.44,2.52.67,3.76-.09,4.61-1.07,1.21-3.26.92-4.47.19-.13-.08-.26-.14-.41-.2-.57-.21-1.06-.24-1.71-.52-2.07-.87-4.9-2.54-5.66-4.54-.47-1.24.4-2.53,2.08-2.19l4.16.83,3.24.27Z"/>
      <path class="cls-14" d="m154.83,349.55c-.03.56-.17.98-.49,1.34-1.07,1.21-3.26.92-4.47.19-.13-.08-.26-.14-.41-.2-.57-.21-1.06-.24-1.71-.52-2.07-.87-4.9-2.54-5.66-4.54-.16-.42-.17-.85-.03-1.22.36,1.93,4.07,4.28,7.55,5.46,2.26.77,4.72.97,5.22-.52Z"/>
    </g>
    <path class="cls-7" d="m147.78,325.21c.48,1.23,1.78,2.89,2.28,4.02l4.9,18.71s-.02.03-.02.05c0,.13-.07.23-.2.31-.7.41-3.01-.27-5.16-1.51-1.8-1.04-2.92-2.15-2.83-2.72l-5.08-16.23c-2.27-6.79,5.37-8.99,6.11-2.62Z"/>
    <g>
      <path class="cls-11" d="m144.16,348.45l3.02,1.15c.75,2.45,1.14,3.64.5,4.59-.9,1.33-3.11,1.33-4.41.76-.14-.06-.28-.11-.43-.14-.59-.13-1.08-.1-1.77-.29-2.16-.6-5.18-1.9-6.19-3.78-.63-1.17.08-2.56,1.79-2.44l4.23.3,3.25-.14Z"/>
      <path class="cls-23" d="m147.99,352.8c.04.56-.04,1-.31,1.39-.9,1.33-3.11,1.33-4.41.76-.14-.06-.28-.11-.43-.14-.59-.13-1.08-.1-1.77-.29-2.16-.6-5.18-1.9-6.19-3.78-.21-.4-.27-.82-.19-1.2.6,1.87,4.58,3.72,8.18,4.45,2.34.47,4.8.36,5.11-1.18Z"/>
    </g>
    <path class="cls-24" d="m141.64,327.59c.74,1.72,1.95,3.91,2.34,5.16l3.85,18.93c.11.27.07.47-.14.6-.64.37-2.63-.17-4.61-1.21-.54-.22-1.09-.54-1.67-1.02-1.12-.8-1.77-1.56-1.71-2l-5.35-18.55c-1.03-4.83,6.56-8.27,7.29-1.9Z"/>
    <path class="cls-7" d="m153.65,303.43c.27,2.62,1.3,6.7,1.31,8.13.01,1.3-.3,2.63-1.16,4.4-1.44,2.97-4.32,6.14-5.81,9.38-1.92,4.17-7.41,4.06-6.53-1.27,1.7-6.03,3.29-11.58,5.36-17.49l6.81-3.15Z"/>
    <path class="cls-24" d="m149.04,317.2c-.64,1.86-1.92,3.01-3.08,4.66-2.02,2.87-2.86,4.37-4.18,7.62-1.91,3.93-6.97,1.9-7.44-1.68,1.9-5.97,3.43-11.16,5.7-17l8.79-4.65c1.14,4.96,1.51,7.26.21,11.04Z"/>
    <path class="cls-32" d="m138.97,280.64c-2.63,1.94-4.21,4.35-4.54,5.79-.07.17-.13.34-.17.52-.5,1.83,2.96,7.2,4.12,13.81.48,2.72,2.1,3.44,1.59,7l13.41-4.74c-1.02-6.9-.05-14.48-2.97-21.04-.77-1.73-1.57-3.48-2.98-4.11-2.39-1.05-6.64,1.42-8.46,2.76Z"/>
    <path class="cls-10" d="m142.3,272.65c.38,1.5,1.71,4.3,2.93,5.95.35,1.35-4.33,3.36-4.83,2.38v.02c-.48-1.41-1.83-3.45-3.4-5.31l5.3-3.03Z"/>
    <g>
      <path class="cls-27" d="m136.08,267.82c-2.17,1.7-1.1,4.59-.52,6.74.3,1.11.33,4.1,1.34,4.54.79.35,3.21-.69,4.07-1.66.63-.71-.15-2.57.14-2.98l-1.89-6.44-3.15-.2Z"/>
      <path class="cls-34" d="m143.72,266.22c2.6,1.71,2.82,4.96,1.5,7.6-.6,1.18-1,2.08-.66,3.86-1.19.16-3.21.44-4.5-1.31-1.28-1.74-1.09-3.68-2.13-3.75-.43-.03-.78.52-.6,2.17-.76-1.59-.98-3.59-1.92-4.86-1.62-2.18-.89-3.62-.49-3.97,1.25.88,2.73-.68,4.84-.74,1.6-.05,3.09-.01,3.96,1Z"/>
    </g>
    <path class="cls-27" d="m130.29,299.85l-8.83,2.5c.04,2.11.2,1.02.94,2.89,1.18-.17,10.29.58,13.64-.9,1.53-.68,2.01-2.11,1.44-3.65-.67-1.75-1.87-1.83-7.2-.84Z"/>
    <path class="cls-11" d="m119.98,302.96c-1.14.19-1.92-.09-2.61.42-.64.47-1.73,1.65-2.14,2.18-.19.35-.49,1.77-.55,2.99,1.17,1.49,4.34,2.88,4.44,2.44.97-1.41-.54-1.08-.41-2.08.11-.83.41-1.46,1.15-1.91.73-.3.91-.26,1.55-.73l.51-.6c.67-.42,2.1.05,4.27-.06.65-1.26-.32-5-1.53-4.79l-4.69,2.15Z"/>
    <path class="cls-24" d="m147.8,277.3c3.62,1.56,5.12,10.99,5.21,14.61.09,3.41-.35,6.27.88,13.22-.3,1.14-7.39,5.06-9.16,5.73-2.73,1.03-4.39,4.87-5.17,1.33.3-2.13-.28-5.29-.65-7.28-1.15-6.14-3.84-15.59-4.04-18.35.19-.09.45-.22.75-.38-.01,1.61.44,4.06,1.72,7.76,1.01,2.93,2.46,4.21,3.54,4.12,3.48-.32,4.1-11.65-1.34-14.5-1.14-.6-2.33-.99-2.92-.96.79-.7,1.12-1.16,1.76-1.55.38-.16,1.35.21,2.33.72,3.5,1.81,4.07,4.28,4.79,6.76.52,1.77.95,1.81,1.53,1.43l2.54-1.56c.45-.43.22-1.09.09-2.25-.46-4.13-2.55-7.25-4.73-8.46.8-.28,2.24-.67,2.88-.4Z"/>
    <path class="cls-27" d="m134.19,287.29c-.75,3.84-.39,8.29-.93,12.5-.37,3.59-.96,3.33,2.06,3.96,1.61.43,2.13-.12,2.65-1.68l2.48-9.63c1.14-5.53-.36-6.42-2.36-7.06-1.9-.61-3.61.48-3.89,1.91Z"/>
    <path class="cls-15" d="m134.21,287c-.43,2.19-.62,4.61-.7,7.05.35,3.36,5.86,3.62,6.23,2.23l.9-3.97c1.18-5.69-.37-6.61-2.43-7.27-1.96-.63-3.72.49-4,1.97Z"/>
    <g>
      <path class="cls-23" d="m145.68,271.95c-2.87,2.81-10,.33-12.25-1.58-3.07-2.6-.06-4.9,3.04-4.83,1.7.04,12.76,2.93,9.22,6.41Z"/>
      <path class="cls-11" d="m146.06,270.86c-1.74,3.06-8,1.43-10.56-.31-.72-.49-1.93-1.63-1.8-2.48,1.32-2.96,5.97-5.18,9.38-3.5,2.21,1.09,3.45,3.72,2.98,6.28Z"/>
      <path class="cls-16" d="m145.76,271.6c.26-2.62-1.04-5.24-3.12-6.26-3.24-1.6-7.55.7-9.25,3.17.29-.85.42-1.14.89-1.91,2.02-2.33,5.96-3.74,8.98-2.25,2.22,1.1,3.51,3.67,3.21,6.24,0,.15-.44.81-.71,1.01Z"/>
      <path class="cls-22" d="m145.76,271.6c.26-2.62-1.04-5.24-3.12-6.26-3.24-1.6-7.55.7-9.25,3.17l.4.16c1.69-2.46,5.62-4.52,8.64-3.03,2.22,1.1,3.06,3.79,3.07,5.94l.27.03Z"/>
    </g>
    <g>
      <g>
        <path class="cls-22" d="m66.01,308.28c.53,1.84.98,2.31,1.79,3.14.6.62,3.87,2.7,4.11,3.3.18.46.18,1.22-.53,1.68-.76.49-2.23.47-3.24.32-2.12-.32-3.78-1.56-5.47-2.82-.17.17-.93-.08-1.64-.5-.58-.34-.87-.63-.95-1.18-.05-.37.03-1.2.08-1.6.13-1.1.6-1.96,1.09-3.08l2.1-.47,2.66,1.22Z"/>
        <path class="cls-14" d="m71.99,315.06c.06.44-.06.97-.62,1.33-.76.49-2.23.47-3.24.32-2.12-.32-3.78-1.56-5.47-2.82-.17.17-.93-.08-1.64-.5-.58-.34-.87-.63-.95-1.18-.03-.2-.02-.52,0-.83.27.81,1.96,1.62,2.78,1.65,1.69,1.26,3.35,2.42,5.47,2.75,1.01.15,2.47.17,3.24-.32.18-.12.32-.25.41-.39Z"/>
      </g>
      <path class="cls-7" d="m67.89,291.75c-.17,1.15-2.38,2.95-2.75,3.98l-4.14,11.55c.13,2.49,4.1,3.7,5.8,2.8l7.99-17.5c.05-6.21-7.2-5.65-6.91-.83Z"/>
      <g>
        <path class="cls-11" d="m59.44,312.17c.53,1.84.98,2.31,1.79,3.14.6.62,3.87,2.7,4.11,3.3.18.46.19,1.22-.53,1.68-.76.49-2.22.47-3.24.32-2.12-.32-3.78-1.56-5.47-2.82-.17.17-.93-.08-1.64-.5-.58-.34-.87-.63-.95-1.18-.05-.37.03-1.2.08-1.6.13-1.1.6-1.96,1.09-3.08l2.1-.48,2.66,1.22Z"/>
        <path class="cls-23" d="m65.42,318.95c.06.44-.06.97-.62,1.33-.76.49-2.22.47-3.24.32-2.12-.32-3.78-1.56-5.47-2.82-.17.17-.93-.08-1.64-.5-.58-.34-.87-.63-.95-1.18-.03-.2-.02-.52,0-.83.27.81,1.96,1.62,2.78,1.65,1.69,1.26,3.35,2.42,5.47,2.75,1.01.15,2.47.17,3.24-.32.18-.12.32-.25.41-.39Z"/>
      </g>
      <path class="cls-7" d="m61.53,272.32c-1.27,5.61,3.65,13.4,5.82,20.58.1,2.11,6.87,2.44,7.34-.06.12-.68-.21-5.36-.81-11.43-.37-3.75-1.96-6.37-1.4-9.58l-10.95.5Z"/>
      <path class="cls-24" d="m61.32,295.64c-.17,1.15-2.38,2.95-2.75,3.98l-4.14,11.55c.13,2.49,4.1,3.7,5.8,2.8l7.99-17.5c.05-6.21-7.2-5.65-6.91-.83Z"/>
      <path class="cls-24" d="m57.86,273.54c-.47,2.78-.81,3.39-.89,3.83-1.36,7.55,2.97,11.34,4.34,19.17-.11,2.11,5.74,4.77,6.95-.32-.04-3.26-.96-13.3-1.66-18.86-.08-.61-.15-1.16-.22-1.65l-8.52-2.17Z"/>
      <path class="cls-32" d="m75.82,261.08c-1.78,3.85-3.28,7.3-3.48,10.71,0,.12-14.66,12.84-13.78-4.64.34-6.88-.55-10.36.63-14.68.12-.45.28-.9.48-1.32,0-.08,0-.16.01-.25.29-1.5,2.87-4.09,8.03-5.19,3.98-.85,7.04-.17,8.5,1.02,3.18,2.58,1.21,10.9-.38,14.36Z"/>
      <path class="cls-24" d="m74.62,264.3c-.98,2.69-2.15,5.23-2.16,7.64-.01,2.12-4.58,5.65-5.85,6.03-4.35,1.29-9.54-.12-9.17-2.29.42-2.48,1.01-6.31,1.12-8.54v-.13c2.25.75,6.38.55,6.98-2.82.67-3.77.91-13.2-2.76-16.65.65-.38,1.4-.75,2.26-1.07,2.62,2.09,3.16,8.08,3.31,12.16.06,1.52.48,2.11,1.42,2.26.9.15,2.42-1.2,3.52-1.92,1.78-1.16,1.41-2.12,1.49-4.2.14-3.56-.55-6.9-2.64-9.52,1.54.15,2.75.58,3.62,1.1,1.23,2.15,1.69,5.32,1.73,7.5.07,3.41-1.73,7.27-2.9,10.44Z"/>
      <path class="cls-10" d="m67.84,242.69c.06,1.67-.22,3.02-.56,4.23,1.47,1.56,2.73,2.3,4.22,2.87.97-.78,1.08-1.72,1.19-2.93.03-.02.07-.04.1-.08,0-.52.01-1.03.1-1.52l-5.05-2.56Z"/>
      <g>
        <path class="cls-27" d="m76.16,240.62c-.19,1.79.02,1.62-1.26,4.4-.38.84-.93,1.87-1.2,2.02-.36.2-1.17.24-1.59.15-.84-.19-2.55-1.37-3.18-1.74-1.38-.83-1.26-1.23-1.44-2.93l-.57-2.46.82-4.76c2.96-.66,5.55-1.06,6.88-.46,1.34.6,1.89,2.27,1.53,5.79Z"/>
        <path class="cls-34" d="m65.69,237.39c.03,2.01,1.03,4.4,1.86,5.95.2-1.39-.34-2.9.33-3.25.37-.19,1.45-.1,1.87,1.81.45-1.23.5-2.34.75-3.52.57-2.06,6.29.45,7.05-2.25-1.79-1.38-1.77-3.13-4.92-3.65-3.4-.56-6.98,1.03-6.92,4.91Z"/>
      </g>
      <g>
        <path class="cls-23" d="m77.4,240.7c-3.08,1.68-10.1-1.26-11.68-3.76-1.51-2.39-.06-4.34,1.87-4.59,3.34-.43,9.02,2.83,10.36,5.44.54,1.06.71,2.23-.55,2.91Z"/>
        <path class="cls-11" d="m65.67,234.32c1.67-6.09,12.26-4.63,12.09,3.99-2.49,3.34-13.18-.74-12.09-3.99Z"/>
        <path class="cls-16" d="m66.3,232.8c3.93-4.53,11.24-1.79,11.87,5.7-.21.45-.99,1.05-1.53,1.35-1.2-8.87-6.64-8.99-10.33-7.05Z"/>
        <path class="cls-22" d="m75.98,239.39l.66.46c-.47-3.48-1.92-6.81-4.37-7.79-1.68-.67-4.26-.33-5.93.73,1.94-.73,4.16-1.05,5.77-.22,2.22,1.15,3.22,3.5,3.86,6.83Z"/>
      </g>
    </g>
    <path class="cls-27" d="m66.84,265.71c2.79,3.51,5.74,10.42,7.36,13.54-.27.72-2.59,1.25-3.28,1.1-1.83-3.62-7.24-8.53-8.93-12.2-.91-1.98-.67-3.22.24-3.83,1.01-.69,3.33-.23,4.61,1.39Z"/>
    <g>
      <path class="cls-11" d="m73.19,276.22c.39,1.08.73,2.2,1.5,2.78-.27.72-3.08,1.51-3.77,1.36-.33-.68-1.04-1.22-1.41-1.9.12-1.74,2.92-2.47,3.68-2.24Z"/>
      <path class="cls-11" d="m70.79,279.92c.3,1,.7,2.61.96,3.61.27,1,.24,1.9.87,2.72.59.76,6.42,1.05,6.23.87-1.59-1.49-1.46-.96-2.34-1.82-1.16-1.14-.17-3.77-.99-5.28-.72-1.32-1.43-.8-2.36-3.11l-2.38,3Z"/>
      <path class="cls-11" d="m71.25,279.27c1.99,2.33.68,3.11,3.48,4.36-.2-.29.5-.76.87-1l.95.71c1.12.8,1.79,1.5,2.28,1.01.48-.48.16-.97-.38-1.47-.49-.46-1.15-.92-1.41-1.31-.22-.33-.65-.83-.9-1.33-.3-.58-1.34-1.02-2.13-1.78l-1.46-.96-1.29,1.79Z"/>
    </g>
    <g>
      <path class="cls-27" d="m59.26,255.24c.33,3.17,1.82,8.35,2.27,12.04,2.34,3.36,5.3.21,5.02-1.3l-.44-10.95c-.6-4.88-2.82-5.32-4.41-5.09-2.06.29-2.66,3.13-2.44,5.3Z"/>
      <path class="cls-15" d="m58.8,254.49c.19,1.8.59,4.17,1.21,7.12,2.17,1.47,6.43.11,6.53-1.09l-.37-5.89c-.6-4.88-2.64-5.81-4.24-5.61-2.35.29-3.36,3.3-3.13,5.48Z"/>
    </g>
  </g>
  <g>
    <polygon class="cls-18" points="266.88 284.69 266.82 280.69 315.86 252.3 319.26 254.41 266.88 284.69"/>
    <polygon class="cls-12" points="319.27 254.44 315.78 252.42 315.56 189.63 319.12 187.52 319.27 254.44"/>
    <g>
      <polygon class="cls-30" points="297 264.15 316.54 252.84 318.53 253.98 298.8 265.38 297 264.15"/>
      <polygon class="cls-9" points="318.54 254.01 316.53 252.85 316.3 188.35 318.3 187.19 318.54 254.01"/>
      <polygon class="cls-29" points="318.55 254 298.81 265.4 298.81 198.44 318.36 187.16 318.55 254"/>
    </g>
    <polygon class="cls-12" points="263.14 215.91 264.45 242.61 262.87 291.61 258.56 289.12 258.83 213.42 263.14 215.91"/>
    <polygon class="cls-18" points="262.55 215.66 258.83 213.44 319.66 178.58 323.06 180.69 262.55 215.66"/>
    <g>
      <polygon class="cls-12" points="295.53 268.16 292.64 266.48 292.41 203.01 295.61 201.16 296.42 205.59 295.53 268.16"/>
      <polygon class="cls-31" points="300.52 198.32 300.76 265.14 295.53 268.16 295.29 201.34 300.52 198.32"/>
    </g>
    <g>
      <polygon class="cls-30" points="263.99 283.52 293.06 266.72 295.06 267.86 265.79 284.75 263.99 283.52"/>
      <polygon class="cls-9" points="295.06 267.89 293.06 266.72 292.82 202.22 294.83 201.07 295.06 267.89"/>
      <polygon class="cls-29" points="295.08 267.88 264.39 285.61 264.39 218.65 294.88 201.03 295.08 267.88"/>
    </g>
    <path class="cls-31" d="m323.26,256.74l-.21-76.05-60.45,34.9c.09,25.35.18,50.68.27,76.01,20.12-11.62,40.26-23.24,60.39-34.87h0Zm-3.98-2.31l-52.44,30.28-.24-66.82,52.49-30.3.19,66.84Z"/>
  </g>
  <polygon class="cls-21" points="148.96 86.59 144.33 83.9 288.69 0 293.32 2.69 148.96 86.59"/>
  <polygon class="cls-3" points="144.33 83.9 144.35 89.85 148.97 92.54 148.96 86.59 144.33 83.9"/>
  <g>
    <path class="cls-25" d="m208.19,93.31l-.64-36.01c-.01-.43.45-1.58,1.51-.47l.17,3.72.61,32.66c0,.82-1.65.7-1.65.1Z"/>
    <g>
      <polygon class="cls-13" points="165.9 121.21 207.89 96.81 252.26 122.43 210.27 146.83 165.9 121.21"/>
      <polygon class="cls-28" points="211.28 142.5 210.23 150.89 163.65 123.99 163.67 116.33 211.28 142.5"/>
      <polygon class="cls-4" points="210.25 143.23 254.4 117.58 254.37 125.23 210.23 150.89 210.25 143.23"/>
      <polygon class="cls-1" points="163.67 116.33 207.81 90.68 254.4 117.58 210.25 143.23 163.67 116.33"/>
    </g>
    <polygon class="cls-25" points="210.01 143.18 208.75 93.1 208.74 92.4 209.29 92.84 254.34 117.59 253.93 118.11 209.43 93.79 210.67 143.17 210.01 143.18"/>
    <polygon class="cls-25" points="209.12 93.62 163.87 117.02 163.48 116.5 208.72 93.09 209.12 93.62"/>
    <path class="cls-25" d="m208.19,93.31l-.26-14.69,1.65.34.27,14.25c0,.82-1.65.7-1.65.1Z"/>
  </g>
  <polygon class="cls-8" points="293.32 2.69 293.33 8.64 148.97 92.54 148.96 86.59 293.32 2.69"/>
  <g>
    <g>
      <g>
        <path class="cls-22" d="m329.23,261.84l1.73-1.9,1.13-.07c.92-.04.94-.02,1.45.51l.68.78c-.38.73-1.4.19-1.85-.5-.51.21-.52.25-1.08.25-.07.89-.76,1.27-1.73,1.52l-.33-.58Z"/>
        <path class="cls-22" d="m330.79,261.9c.42-.36.68-.65,1.04-.95.38-.32.28-.29.71-.09.28.13.52.22.8.31.48.16.39.04.58.49.17.43.35.81.57,1.26-.69.15-.97.05-1.36-.91-.26.12-.59,0-.74-.16-.33.6-.77.62-1.14.66l-.45-.6Z"/>
        <path class="cls-22" d="m334.31,263.97c-.72.23-.69-.84-.83-1.08-.6-.16-.62-.2-1.15-.52,0,0,.51,1.51.53,1.6s-1.41,1.48-1.41,1.48l-1.58-1.29-.02-1.65.85-.99c1.38,0,2.21-.37,2.74.05.77.61.88,1.51.89,2.4Z"/>
      </g>
      <path class="cls-16" d="m332,269.13c-.47-1.96-1.11-2.8-2.14-4.19-.6-.8-.63-.71-.66-1.69-.02-.67-.08-1.24-.2-1.95-.09-.54-.08-.63.34-1.05.34-.34.68-.68,1.01-1.03.26-.02.52-.03.78-.05l1.01-.08c-.1.86-.38.88-1.33,1.13-.16.46-.33.61-.56.82.3.25.63.65.5,1.06.36.25.62.46.77.89.21.61,1.38.35,1.89.31.87-.06,1.56,1.48.79,4.03l.03,1.8h-2.24Z"/>
    </g>
    <g>
      <g>
        <path class="cls-22" d="m339.16,266.22l-2.54-.4-.93.65c-.75.55-.75.57-.81,1.3l-.04,1.03c.75.33,1.22-.73,1.13-1.55.53-.16.56-.13,1-.48.61.65,1.39.52,2.3.1l-.11-.66Z"/>
        <path class="cls-22" d="m337.98,267.23c-.55-.02-.93-.08-1.41-.09-.5-.01-.4-.05-.61.37-.14.27-.27.5-.43.75-.27.42-.28.27-.14.74.13.44.23.85.34,1.33.64-.31.79-.57.49-1.56.28-.07.45-.37.48-.58.64.26,1,0,1.3-.2l-.02-.75Z"/>
        <path class="cls-22" d="m336.53,271.05c.71-.27.02-1.09-.03-1.36.37-.5.36-.55.57-1.13,0,0,.54,1.5.59,1.58.05.08,2.03.27,2.03.27l.43-1.99-1.01-1.3-1.29-.24c-1.08.86-1.95,1.09-2.1,1.75-.22.96.26,1.73.81,2.43Z"/>
      </g>
      <path class="cls-16" d="m341.55,273.63c-.86-1.83-.88-2.88-.95-4.61-.04-1,.05-.95-.54-1.73-.4-.54-.71-1.02-1.06-1.64-.27-.48-.33-.54-.92-.6-.48-.05-.96-.1-1.44-.17-.21.15-.42.3-.64.45l-.83.57c.62.61.85.46,1.74.05.41.26.63.27.94.29-.08.38-.08.9.27,1.15-.12.42-.2.75-.04,1.18.22.61-.86,1.14-1.28,1.43-.71.49-.29,2.14,1.9,3.64l1.1,1.43,1.75-1.41Z"/>
    </g>
    <path class="cls-25" d="m207.52,47.01c0-.29.3-1.06,1.01-.32l169.44,290.86-.91.62L208.84,49.11c-.36-.52-.71-.91-1.32-2.1Z"/>
    <g>
      <path class="cls-22" d="m356.57,341.59l3.18,1.71c.49,2.82.75,4.2-.1,5.16-1.19,1.35-3.64,1.03-4.99.21-.15-.09-.29-.16-.46-.22-.64-.23-1.18-.27-1.92-.58-2.31-.97-5.48-2.85-6.33-5.08-.53-1.39.45-2.83,2.33-2.45l4.66.93,3.62.31Z"/>
      <path class="cls-14" d="m360.2,346.96c-.03.62-.19,1.1-.54,1.5-1.19,1.35-3.64,1.03-4.99.21-.15-.09-.29-.16-.46-.22-.64-.23-1.18-.27-1.92-.58-2.31-.97-5.48-2.85-6.33-5.08-.18-.47-.18-.95-.04-1.36.4,2.16,4.55,4.78,8.44,6.1,2.53.86,5.28,1.09,5.84-.58Z"/>
    </g>
    <path class="cls-7" d="m352.32,319.74c.53,1.38,2.52,3.41,3.08,4.67l4.9,20.58c-1.94,2.27-8.95-1.72-9.13-4.17l-5.68-18.15c-2.53-7.59,6.01-10.05,6.84-2.93Z"/>
    <path class="cls-7" d="m358.44,295.38c1.3,3.29,1.89,7.49,1.91,9.1.02,1.45-.34,2.94-1.29,4.92-1.61,3.33-4.83,6.87-6.49,10.49-2.15,4.67-8.28,4.54-7.3-1.42,1.9-6.75,3.68-12.95,6-19.56l7.18-3.52Z"/>
    <g>
      <path class="cls-16" d="m341,273.83c-1.33-2.82-.13-3.12-2.54-5.08.12.34-.41.49-.84.64l-.74-.95c-.89-1.08-1.36-1.94-1.97-1.59-.61.35-.34.63.28,1.61.38.84.89,1.21,1.07,1.73.28.82-.29,2.14,1.9,3.64l1.1,1.43,1.74-1.41Z"/>
      <path class="cls-7" d="m341.71,272.23c-1.14-.5-3.41,1.3-3.4,2.57l7.13,12.86c1.99,2.49,3.91,2.2,4.87,1.04.94-1.14,1.31-3.16-.89-5.4l-7.71-11.07Z"/>
    </g>
    <path class="cls-32" d="m355.68,266.56c.26.05.59.26.93.45,2.69,1.41,2.87,5.69,2.32,10.18-.59,4.78-2,9.82-1.86,12.61.09,1.73.5,4.7.74,8.11-.64,2.76-9.37,4.79-14.46,1.37,0-1.51-2-10.37-3.04-16.82-.98-6.07-3.45-8.45,1.27-11.63,3.31-2.23,10.22-5.58,14.08-4.28Z"/>
    <path class="cls-24" d="m355.68,266.56c.51.11,1.07.89,1.26,1.36.71,1.78,1.27,4.21,1.64,6.45.63,3.8-.08,6.1-.7,9.85-.37,2.22-.65,4.2-.57,5.58.09,1.73.7,4.32,1.98,8.17-.64,2.76-9.8,10.6-15.5,5.07-.39-3.13-2.38-12.82-3.27-19.28.08.42.16.83.25,1.23.65,2.98,2.55,4.17,3.66,4.07,1.21-.11,2.32-.88,2.82-3.14.83-3.71.24-14.51-4.83-15.59.67-.48,1.5-.86,2.35-1.33,4.37,1.24,5.64,10.2,6.01,12.44.3,1.8.74,1.84,1.37,1.45l3.49-1.53c1.09-2.35-.42-13.47-2.71-15.06,1.1-.12,2.03.04,2.74.28Z"/>
    <path class="cls-27" d="m337.89,275.09c-5.85,9.24-6.53,11.84-4.49,13.58,2.63,1.48,6.66-3.67,9.3-7.09,1.25-1.61,2.19-3.26,2.28-5.41.07-1.76-.56-4.07-2.49-4.71-2.09-.69-3.65,2.14-4.59,3.62Z"/>
    <path class="cls-15" d="m337.89,274.86c-.64,1-1.21,2.16-1.73,3.02-1.3,3.38,1.92,8.26,3.43,7.52,1.12-1.25,2.37-2.51,3.28-3.69,1.25-1.61,2.31-3.38,2.39-5.52.07-1.76-.73-4.19-2.66-4.83-2.09-.69-3.77,2.03-4.71,3.51Z"/>
    <path class="cls-10" d="m350.99,261.89c.1,1.48.85,4.35,1.65,6.19.3,1.72-4.69,2.71-5.45,1.01-.56-1.24-1.89-4.42-2.26-5.08l6.07-2.12Z"/>
    <g>
      <path class="cls-27" d="m347.3,254.94c-2.74.97-2.63,4.22-2.77,6.56-.07,1.21-1.04,4.21-.18,4.99.67.61,3.43.38,4.62-.3.86-.5.71-2.61,1.14-2.93l.26-7.06-3.08-1.25Z"/>
      <path class="cls-34" d="m355.25,256.01c2.02,2.58,1.38,5.78-.83,7.97-.99.98-1.69,1.75-1.95,3.64-1.24-.24-3.35-.64-4.05-2.81-.7-2.17.14-4.04-.88-4.46-.42-.17-.95.25-1.32,1.97-.23-1.84-.08-3.85-.29-5.5-.44-3.35,7.32-4.12,9.32-.81Z"/>
    </g>
    <g>
      <path class="cls-22" d="m355.15,262.99c-3.64,1.85-9.8-2.72-11.41-5.26-2.19-3.46,1.44-4.77,4.42-3.76,1.64.55,11.49,6.73,7,9.02Z"/>
      <path class="cls-11" d="m355.85,262.06c-2.62,2.44-8.2-1.04-10.16-3.51-.55-.7-1.37-2.17-1-2.95,2.19-2.47,7.37-3.21,10.17-.54,1.81,1.73,2.21,4.66.98,7Z"/>
      <path class="cls-16" d="m355.33,262.69c1.05-2.46.59-5.4-1.12-7.03-2.66-2.54-7.54-1.62-9.94.26.54-.74.75-.98,1.44-1.58,2.67-1.65,6.92-1.82,9.4.55,1.82,1.74,2.29,4.63,1.22,7.04-.05.14-.67.65-1,.77Z"/>
      <path class="cls-22" d="m355.34,262.69c1.05-2.46.58-5.4-1.12-7.03-2.66-2.54-7.54-1.62-9.94.26l.34.28c2.39-1.87,6.83-2.68,9.31-.31,1.82,1.74,1.82,4.61,1.17,6.7l.25.11Z"/>
    </g>
    <path class="cls-27" d="m331.76,268.34c.17-1.23,1.87-1.37,2.94-.7l2.79,15.62c1.09,3-1.09,5.42-2.59,5.64-1.46.21-2.85-.71-3.61-3.75l.47-16.81Z"/>
    <g>
      <path class="cls-11" d="m348.27,345.74l3.37,1.29c.84,2.74,1.28,4.07.56,5.13-1.01,1.49-3.48,1.49-4.93.85-.16-.07-.31-.12-.48-.16-.67-.15-1.21-.12-1.97-.33-2.42-.67-5.79-2.13-6.92-4.23-.7-1.31.08-2.86,2-2.73l4.74.33,3.63-.16Z"/>
      <path class="cls-23" d="m352.55,350.6c.05.62-.05,1.11-.35,1.55-1.01,1.49-3.48,1.49-4.93.85-.16-.07-.31-.12-.48-.16-.67-.15-1.21-.12-1.97-.33-2.42-.67-5.79-2.13-6.92-4.23-.24-.45-.3-.92-.21-1.35.67,2.09,5.13,4.17,9.15,4.98,2.62.53,5.37.41,5.72-1.31Z"/>
    </g>
    <path class="cls-24" d="m345.45,322.4c.82,1.92,2.48,4.38,2.91,5.77l4.04,20.67c-.78,1.64-4.25,1.26-6.52.07-1.9-1-2.75-2.6-2.59-3.63l-5.99-20.75c-1.15-5.4,7.33-9.25,8.16-2.13Z"/>
    <path class="cls-24" d="m353.72,310.78c-.72,2.08-2.15,3.37-3.45,5.21-2.25,3.21-3.2,4.89-4.68,8.52-2.14,4.39-7.79,2.12-8.32-1.88,2.16-7.94,2.65-12.94,5.83-18.78.29-.54.72-2.66.25-4.86l10.13-.57c1.27,5.55,1.69,8.12.24,12.35Z"/>
    <path class="cls-16" d="m332.12,267.63c-.73-1.63-1.59-1.66-1.05-4.16.12.34.92.04,1.34-.11l-.02-1.21c.02-1.4-.15-2.37.54-2.48.69-.11.66.28.78,1.43.23.89.06,1.51.25,2.02.3.82,1.56,1.48.79,4.02l.02.83.62,2.62c.05.69-3.6,1.22-3.89.25l.24-2.5c.04-.3.17-.54.37-.71Z"/>
  </g>
  <g>
    <polygon class="cls-20" points="78.1 377.72 78.36 377.53 78.07 382.53 71.17 378.53 71.2 373.72 78.1 377.72"/>
    <polygon class="cls-6" points="78.1 377.72 92.51 369.31 92.48 374.12 78.07 382.53 78.1 377.72"/>
    <polygon class="cls-33" points="85.56 365.29 92.51 369.31 78.1 377.72 71.2 373.72 85.56 365.29"/>
  </g>
  <g>
    <polygon class="cls-20" points="99.53 383.81 99.79 383.61 99.5 388.61 92.61 384.61 92.63 379.81 99.53 383.81"/>
    <polygon class="cls-6" points="99.53 383.81 113.94 375.4 113.91 380.21 99.5 388.61 99.53 383.81"/>
    <polygon class="cls-33" points="107 371.37 113.94 375.4 99.53 383.81 92.63 379.81 107 371.37"/>
  </g>
  <g>
    <polygon class="cls-20" points="107.86 369.39 108.12 369.19 107.83 374.19 100.94 370.19 100.97 365.39 107.86 369.39"/>
    <polygon class="cls-6" points="107.86 369.39 122.27 360.98 122.24 365.79 107.83 374.19 107.86 369.39"/>
    <polygon class="cls-33" points="115.33 356.95 122.27 360.98 107.86 369.39 100.97 365.39 115.33 356.95"/>
  </g>
  <g>
    <polygon class="cls-33" points="96.02 377.98 96.28 377.79 95.99 382.79 89.1 378.79 89.13 373.98 96.02 377.98"/>
    <polygon class="cls-20" points="96.02 377.98 110.43 369.58 110.4 374.38 95.99 382.79 96.02 377.98"/>
    <polygon class="cls-17" points="103.49 365.55 110.43 369.58 96.02 377.98 89.13 373.98 103.49 365.55"/>
  </g>
  <g>
    <polygon class="cls-33" points="74.46 372.43 74.72 372.24 74.43 377.24 67.54 373.24 67.56 368.43 74.46 372.43"/>
    <polygon class="cls-20" points="74.46 372.43 88.87 364.02 88.84 368.83 74.43 377.24 74.46 372.43"/>
    <polygon class="cls-17" points="81.93 359.99 88.87 364.02 74.46 372.43 67.56 368.43 81.93 359.99"/>
  </g>
  <g>
    <polygon class="cls-33" points="77.3 391.81 77.56 391.62 77.27 396.62 70.38 392.62 70.41 387.81 77.3 391.81"/>
    <polygon class="cls-20" points="77.3 391.81 91.72 383.4 91.69 388.21 77.27 396.62 77.3 391.81"/>
    <polygon class="cls-17" points="84.77 379.37 91.72 383.4 77.3 391.81 70.41 387.81 84.77 379.37"/>
  </g>
  <polygon class="cls-19" points="295.07 375.75 303.47 380.61 286.04 390.78 277.71 385.94 295.07 375.75"/>
  <g>
    <polygon class="cls-20" points="286.99 383.67 287.25 383.48 286.96 388.48 280.06 384.48 280.09 379.67 286.99 383.67"/>
    <polygon class="cls-6" points="286.99 383.67 301.4 375.27 301.37 380.07 286.96 388.48 286.99 383.67"/>
    <polygon class="cls-33" points="294.45 371.24 301.4 375.27 286.99 383.67 280.09 379.67 294.45 371.24"/>
  </g>
  <polygon class="cls-19" points="313.59 374.95 321.99 379.82 304.57 389.98 296.23 385.15 313.59 374.95"/>
  <g>
    <polygon class="cls-20" points="305.51 382.88 305.77 382.69 305.48 387.69 298.58 383.69 298.61 378.88 305.51 382.88"/>
    <polygon class="cls-6" points="305.51 382.88 319.92 374.47 319.89 379.28 305.48 387.69 305.51 382.88"/>
    <polygon class="cls-33" points="312.97 370.45 319.92 374.47 305.51 382.88 298.61 378.88 312.97 370.45"/>
  </g>
  <polygon class="cls-19" points="296.92 390.3 305.32 395.17 287.9 405.33 279.56 400.49 296.92 390.3"/>
  <g>
    <polygon class="cls-20" points="288.84 398.23 289.1 398.03 288.81 403.03 281.92 399.03 281.94 394.23 288.84 398.23"/>
    <polygon class="cls-6" points="288.84 398.23 303.25 389.82 303.22 394.62 288.81 403.03 288.84 398.23"/>
    <polygon class="cls-33" points="296.31 385.79 303.25 389.82 288.84 398.23 281.94 394.23 296.31 385.79"/>
  </g>
  <g>
    <g>
      <g>
        <polygon class="cls-33" points="11.51 364.14 11.76 363.95 11.47 368.95 4.58 364.95 4.61 360.14 11.51 364.14"/>
        <polygon class="cls-20" points="11.51 364.14 25.92 355.74 25.89 360.54 11.47 368.95 11.51 364.14"/>
        <polygon class="cls-17" points="18.97 351.71 25.92 355.74 11.51 364.14 4.61 360.14 18.97 351.71"/>
      </g>
      <g>
        <polygon class="cls-33" points="18.72 368.24 18.97 368.05 18.68 373.05 11.79 369.05 11.82 364.24 18.72 368.24"/>
        <polygon class="cls-20" points="18.72 368.24 33.13 359.84 33.1 364.64 18.68 373.05 18.72 368.24"/>
        <polygon class="cls-17" points="26.18 355.81 33.13 359.84 18.72 368.24 11.82 364.24 26.18 355.81"/>
      </g>
      <g>
        <polygon class="cls-33" points="25.99 372.44 26.25 372.25 25.96 377.25 19.07 373.25 19.1 368.44 25.99 372.44"/>
        <polygon class="cls-20" points="25.99 372.44 40.4 364.04 40.37 368.84 25.96 377.25 25.99 372.44"/>
        <polygon class="cls-17" points="33.46 360.01 40.4 364.04 25.99 372.44 19.1 368.44 33.46 360.01"/>
      </g>
      <g>
        <polygon class="cls-33" points="33.12 376.5 33.38 376.3 33.09 381.3 26.19 377.3 26.22 372.5 33.12 376.5"/>
        <polygon class="cls-20" points="33.12 376.5 47.53 368.09 47.5 372.9 33.09 381.3 33.12 376.5"/>
        <polygon class="cls-17" points="40.59 364.06 47.53 368.09 33.12 376.5 26.22 372.5 40.59 364.06"/>
      </g>
      <g>
        <polygon class="cls-33" points="40.25 380.55 40.5 380.36 40.22 385.36 33.32 381.36 33.35 376.55 40.25 380.55"/>
        <polygon class="cls-20" points="40.25 380.55 54.66 372.14 54.63 376.95 40.22 385.35 40.25 380.55"/>
        <polygon class="cls-17" points="47.71 368.11 54.66 372.14 40.25 380.55 33.35 376.55 47.71 368.11"/>
      </g>
      <g>
        <polygon class="cls-33" points="47.41 384.67 47.66 384.47 47.38 389.47 40.48 385.47 40.51 380.67 47.41 384.67"/>
        <polygon class="cls-20" points="47.41 384.67 61.82 376.26 61.79 381.07 47.38 389.47 47.41 384.67"/>
        <polygon class="cls-17" points="54.87 372.23 61.82 376.26 47.41 384.67 40.51 380.67 54.87 372.23"/>
      </g>
    </g>
    <g>
      <g>
        <polygon class="cls-33" points="11.51 359.05 11.76 358.86 11.47 363.86 4.58 359.86 4.61 355.05 11.51 359.05"/>
        <polygon class="cls-20" points="11.51 359.05 25.92 350.64 25.89 355.45 11.47 363.86 11.51 359.05"/>
        <polygon class="cls-17" points="18.97 346.62 25.92 350.64 11.51 359.05 4.61 355.05 18.97 346.62"/>
      </g>
      <g>
        <polygon class="cls-33" points="18.72 363.15 18.97 362.96 18.68 367.96 11.79 363.96 11.82 359.15 18.72 363.15"/>
        <polygon class="cls-20" points="18.72 363.15 33.13 354.74 33.1 359.55 18.68 367.96 18.72 363.15"/>
        <polygon class="cls-17" points="26.18 350.72 33.13 354.74 18.72 363.15 11.82 359.15 26.18 350.72"/>
      </g>
      <g>
        <polygon class="cls-33" points="25.99 367.35 26.25 367.16 25.96 372.16 19.07 368.16 19.1 363.35 25.99 367.35"/>
        <polygon class="cls-20" points="25.99 367.35 40.4 358.94 40.37 363.75 25.96 372.16 25.99 367.35"/>
        <polygon class="cls-17" points="33.46 354.92 40.4 358.94 25.99 367.35 19.1 363.35 33.46 354.92"/>
      </g>
      <g>
        <polygon class="cls-33" points="33.12 371.4 33.38 371.21 33.09 376.21 26.19 372.21 26.22 367.4 33.12 371.4"/>
        <polygon class="cls-20" points="33.12 371.4 47.53 363 47.5 367.8 33.09 376.21 33.12 371.4"/>
        <polygon class="cls-17" points="40.59 358.97 47.53 363 33.12 371.4 26.22 367.4 40.59 358.97"/>
      </g>
      <g>
        <polygon class="cls-33" points="40.25 375.45 40.5 375.26 40.22 380.26 33.32 376.26 33.35 371.45 40.25 375.45"/>
        <polygon class="cls-20" points="40.25 375.45 54.66 367.05 54.63 371.85 40.22 380.26 40.25 375.45"/>
        <polygon class="cls-17" points="47.71 363.02 54.66 367.05 40.25 375.45 33.35 371.45 47.71 363.02"/>
      </g>
      <g>
        <polygon class="cls-33" points="47.41 379.57 47.66 379.38 47.38 384.38 40.48 380.38 40.51 375.57 47.41 379.57"/>
        <polygon class="cls-20" points="47.41 379.57 61.82 371.17 61.79 375.97 47.38 384.38 47.41 379.57"/>
        <polygon class="cls-17" points="54.87 367.14 61.82 371.17 47.41 379.57 40.51 375.57 54.87 367.14"/>
      </g>
    </g>
    <g>
      <g>
        <polygon class="cls-33" points="11.51 353.96 11.76 353.76 11.47 358.76 4.58 354.77 4.61 349.96 11.51 353.96"/>
        <polygon class="cls-20" points="11.51 353.96 25.92 345.55 25.89 350.36 11.47 358.76 11.51 353.96"/>
        <polygon class="cls-17" points="18.97 341.52 25.92 345.55 11.51 353.96 4.61 349.96 18.97 341.52"/>
      </g>
      <g>
        <polygon class="cls-33" points="18.72 358.06 18.97 357.87 18.68 362.87 11.79 358.87 11.82 354.06 18.72 358.06"/>
        <polygon class="cls-20" points="18.72 358.06 33.13 349.65 33.1 354.46 18.68 362.87 18.72 358.06"/>
        <polygon class="cls-17" points="26.18 345.62 33.13 349.65 18.72 358.06 11.82 354.06 26.18 345.62"/>
      </g>
      <g>
        <polygon class="cls-33" points="25.99 362.26 26.25 362.07 25.96 367.07 19.07 363.07 19.1 358.26 25.99 362.26"/>
        <polygon class="cls-20" points="25.99 362.26 40.4 353.85 40.37 358.66 25.96 367.07 25.99 362.26"/>
        <polygon class="cls-17" points="33.46 349.82 40.4 353.85 25.99 362.26 19.1 358.26 33.46 349.82"/>
      </g>
      <g>
        <polygon class="cls-33" points="33.12 366.31 33.38 366.12 33.09 371.12 26.19 367.12 26.22 362.31 33.12 366.31"/>
        <polygon class="cls-20" points="33.12 366.31 47.53 357.9 47.5 362.71 33.09 371.12 33.12 366.31"/>
        <polygon class="cls-17" points="40.59 353.87 47.53 357.9 33.12 366.31 26.22 362.31 40.59 353.87"/>
      </g>
      <g>
        <polygon class="cls-33" points="40.25 370.36 40.5 370.17 40.22 375.17 33.32 371.17 33.35 366.36 40.25 370.36"/>
        <polygon class="cls-20" points="40.25 370.36 54.66 361.95 54.63 366.76 40.22 375.17 40.25 370.36"/>
        <polygon class="cls-17" points="47.71 357.93 54.66 361.95 40.25 370.36 33.35 366.36 47.71 357.93"/>
      </g>
      <g>
        <polygon class="cls-33" points="47.41 374.48 47.66 374.29 47.38 379.29 40.48 375.29 40.51 370.48 47.41 374.48"/>
        <polygon class="cls-20" points="47.41 374.48 61.82 366.07 61.79 370.88 47.38 379.29 47.41 374.48"/>
        <polygon class="cls-17" points="54.87 362.04 61.82 366.07 47.41 374.48 40.51 370.48 54.87 362.04"/>
      </g>
    </g>
    <g>
      <g>
        <polygon class="cls-33" points="11.51 348.93 11.76 348.74 11.47 353.74 4.58 349.74 4.61 344.93 11.51 348.93"/>
        <polygon class="cls-20" points="11.51 348.93 25.92 340.52 25.89 345.33 11.47 353.74 11.51 348.93"/>
        <polygon class="cls-17" points="18.97 336.5 25.92 340.52 11.51 348.93 4.61 344.93 18.97 336.5"/>
      </g>
      <g>
        <polygon class="cls-33" points="18.72 353.03 18.97 352.84 18.68 357.84 11.79 353.84 11.82 349.03 18.72 353.03"/>
        <polygon class="cls-20" points="18.72 353.03 33.13 344.62 33.1 349.43 18.68 357.84 18.72 353.03"/>
        <polygon class="cls-17" points="26.18 340.6 33.13 344.62 18.72 353.03 11.82 349.03 26.18 340.6"/>
      </g>
      <g>
        <polygon class="cls-33" points="25.99 357.23 26.25 357.04 25.96 362.04 19.07 358.04 19.1 353.23 25.99 357.23"/>
        <polygon class="cls-20" points="25.99 357.23 40.4 348.82 40.37 353.63 25.96 362.04 25.99 357.23"/>
        <polygon class="cls-17" points="33.46 344.8 40.4 348.82 25.99 357.23 19.1 353.23 33.46 344.8"/>
      </g>
      <g>
        <polygon class="cls-33" points="33.12 361.28 33.38 361.09 33.09 366.09 26.19 362.09 26.22 357.28 33.12 361.28"/>
        <polygon class="cls-20" points="33.12 361.28 47.53 352.87 47.5 357.68 33.09 366.09 33.12 361.28"/>
        <polygon class="cls-17" points="40.59 348.85 47.53 352.87 33.12 361.28 26.22 357.28 40.59 348.85"/>
      </g>
      <g>
        <polygon class="cls-33" points="40.25 365.33 40.5 365.14 40.22 370.14 33.32 366.14 33.35 361.33 40.25 365.33"/>
        <polygon class="cls-20" points="40.25 365.33 54.66 356.93 54.63 361.73 40.22 370.14 40.25 365.33"/>
        <polygon class="cls-17" points="47.71 352.9 54.66 356.93 40.25 365.33 33.35 361.33 47.71 352.9"/>
      </g>
      <g>
        <polygon class="cls-33" points="47.41 369.45 47.66 369.26 47.38 374.26 40.48 370.26 40.51 365.45 47.41 369.45"/>
        <polygon class="cls-20" points="47.41 369.45 61.82 361.05 61.79 365.85 47.38 374.26 47.41 369.45"/>
        <polygon class="cls-17" points="54.87 357.02 61.82 361.05 47.41 369.45 40.51 365.45 54.87 357.02"/>
      </g>
    </g>
    <g>
      <g>
        <polygon class="cls-33" points="11.51 343.84 11.76 343.64 11.47 348.64 4.58 344.65 4.61 339.84 11.51 343.84"/>
        <polygon class="cls-20" points="11.51 343.84 25.92 335.43 25.89 340.24 11.47 348.64 11.51 343.84"/>
        <polygon class="cls-17" points="18.97 331.4 25.92 335.43 11.51 343.84 4.61 339.84 18.97 331.4"/>
      </g>
      <g>
        <polygon class="cls-33" points="18.72 347.94 18.97 347.75 18.68 352.75 11.79 348.75 11.82 343.94 18.72 347.94"/>
        <polygon class="cls-20" points="18.72 347.94 33.13 339.53 33.1 344.34 18.68 352.75 18.72 347.94"/>
        <polygon class="cls-17" points="26.18 335.5 33.13 339.53 18.72 347.94 11.82 343.94 26.18 335.5"/>
      </g>
      <g>
        <polygon class="cls-33" points="25.99 352.14 26.25 351.95 25.96 356.95 19.07 352.95 19.1 348.14 25.99 352.14"/>
        <polygon class="cls-20" points="25.99 352.14 40.4 343.73 40.37 348.54 25.96 356.95 25.99 352.14"/>
        <polygon class="cls-17" points="33.46 339.7 40.4 343.73 25.99 352.14 19.1 348.14 33.46 339.7"/>
      </g>
      <g>
        <polygon class="cls-33" points="33.12 356.19 33.38 356 33.09 361 26.19 357 26.22 352.19 33.12 356.19"/>
        <polygon class="cls-20" points="33.12 356.19 47.53 347.78 47.5 352.59 33.09 361 33.12 356.19"/>
        <polygon class="cls-17" points="40.59 343.75 47.53 347.78 33.12 356.19 26.22 352.19 40.59 343.75"/>
      </g>
      <g>
        <polygon class="cls-33" points="40.25 360.24 40.5 360.05 40.22 365.05 33.32 361.05 33.35 356.24 40.25 360.24"/>
        <polygon class="cls-20" points="40.25 360.24 54.66 351.83 54.63 356.64 40.22 365.05 40.25 360.24"/>
        <polygon class="cls-17" points="47.71 347.81 54.66 351.83 40.25 360.24 33.35 356.24 47.71 347.81"/>
      </g>
      <g>
        <polygon class="cls-33" points="47.41 364.36 47.66 364.17 47.38 369.17 40.48 365.17 40.51 360.36 47.41 364.36"/>
        <polygon class="cls-20" points="47.41 364.36 61.82 355.95 61.79 360.76 47.38 369.17 47.41 364.36"/>
        <polygon class="cls-17" points="54.87 351.92 61.82 355.95 47.41 364.36 40.51 360.36 54.87 351.92"/>
      </g>
    </g>
  </g>
  <g>
    <polygon class="cls-6" points="398.12 299.83 398.08 314.75 385.18 322.25 385.22 307.33 398.12 299.83"/>
    <polygon class="cls-20" points="385.22 307.33 385.18 322.25 372.2 314.75 372.24 299.83 385.22 307.33"/>
    <polygon class="cls-33" points="398.12 299.83 385.22 307.33 372.24 299.83 385.14 292.33 398.12 299.83"/>
  </g>
  <g>
    <polygon class="cls-6" points="412.41 308.16 412.37 323.08 399.47 330.58 399.51 315.66 412.41 308.16"/>
    <polygon class="cls-20" points="399.51 315.66 399.47 330.58 386.49 323.09 386.53 308.16 399.51 315.66"/>
    <polygon class="cls-33" points="412.41 308.16 399.51 315.66 386.53 308.16 399.43 300.67 412.41 308.16"/>
  </g>
  <g>
    <polygon class="cls-6" points="426.96 316.23 426.92 331.15 414.02 338.65 414.06 323.73 426.96 316.23"/>
    <polygon class="cls-20" points="414.06 323.73 414.02 338.65 401.04 331.15 401.08 316.23 414.06 323.73"/>
    <polygon class="cls-33" points="426.96 316.23 414.06 323.73 401.08 316.23 413.98 308.74 426.96 316.23"/>
  </g>
  <g>
    <polygon class="cls-6" points="403.81 286.6 403.77 301.52 390.87 309.02 390.91 294.1 403.81 286.6"/>
    <polygon class="cls-20" points="390.91 294.1 390.87 309.02 377.89 301.52 377.93 286.6 390.91 294.1"/>
    <polygon class="cls-33" points="403.81 286.6 390.91 294.1 377.93 286.6 390.83 279.1 403.81 286.6"/>
  </g>
  <g>
    <polygon class="cls-6" points="418.37 294.67 418.32 309.59 405.42 317.09 405.46 302.17 418.37 294.67"/>
    <polygon class="cls-20" points="405.46 302.17 405.42 317.09 392.44 309.59 392.48 294.67 405.46 302.17"/>
    <polygon class="cls-33" points="418.37 294.67 405.46 302.17 392.48 294.67 405.38 287.17 418.37 294.67"/>
  </g>
</svg>