<svg xmlns="http://www.w3.org/2000/svg" version="1.1" xmlns:xlink="http://www.w3.org/1999/xlink" xmlns:svgjs="http://svgjs.com/svgjs" width="898.71" height="932.78"><svg id="SvgjsSvg1000" xmlns="http://www.w3.org/2000/svg" viewBox="0 0 898.71 932.78">
  <defs>
    <style>
      .cls-1 {
        fill: #0d6efd;
      }
    </style>
  </defs>
  <path class="cls-1" d="m882.29,400.51l-86.25-84.55v-140.22c0-18.09-14.66-32.75-32.75-32.75h-45.65c-16.99,0-30.76,13.77-30.76,30.76v35.2L491.1,17.05c-11.59-11.36-26.67-17.05-41.74-17.05s-30.15,5.68-41.74,17.05L16.42,400.51c-15.88,15.56-20.76,39.18-12.35,59.77,8.41,20.58,28.43,34.03,50.66,34.03h20.82v302.69c0,31.24,25.33,56.57,56.57,56.57h634.49c31.24,0,56.57-25.33,56.57-56.57v-302.69h20.82c22.23,0,42.25-13.45,50.66-34.03,8.41-20.58,3.52-44.2-12.35-59.77Zm-272.8,314.38c4.17,50.43,35.89,86.14,35.89,86.14-63.16-16.84-94.07-42.83-106.81-56.65-27.94,7.7-57.94,11.93-89.22,11.93-149.08,0-269.94-95.08-269.94-212.38s120.86-212.38,269.94-212.38,269.94,95.09,269.94,212.38c0,70.12-43.21,132.28-109.8,170.95Z"></path>
  <text svgjs:data="{&quot;leading&quot;:&quot;1.3&quot;}"></text>
</svg><style>@media (prefers-color-scheme: light) { :root { filter: none; } }
</style></svg>