<?xml version="1.0" encoding="UTF-8"?>
<svg id="Logo" xmlns="http://www.w3.org/2000/svg" viewBox="0 0 547.47 858.55">
  <defs>
    <style>
      .cls-1 {
        fill: #0d6efd;
      }

      .cls-2 {
        letter-spacing: -.04em;
      }

      .cls-3 {
        font-family: Bahnschrift, Bahnschrift;
        font-size: 120px;
        font-variation-settings: 'wght' 400, 'wdth' 100;
      }
    </style>
  </defs>
  <path class="cls-1" d="m498.71,208.12l-44.82-43.93v-72.86c0-9.4-7.62-17.02-17.02-17.02h-23.72c-8.83,0-15.99,7.16-15.99,15.99v18.29L295.43,8.86c-6.02-5.91-13.86-8.86-21.69-8.86s-15.67,2.95-21.69,8.86L48.76,208.12c-8.25,8.09-10.79,20.36-6.42,31.06,4.37,10.7,14.77,17.69,26.32,17.69h10.82v157.29c0,16.23,13.16,29.4,29.4,29.4h329.71c16.23,0,29.39-13.16,29.39-29.4v-157.29h10.82c11.55,0,21.96-6.99,26.32-17.69,4.37-10.7,1.83-22.97-6.42-31.06Zm-141.76,163.36c2.17,26.21,18.65,44.76,18.65,44.76-32.82-8.75-48.88-22.26-55.5-29.44-14.52,4-30.11,6.2-46.36,6.2-77.47,0-140.27-49.41-140.27-110.36s62.8-110.36,140.27-110.36,140.27,49.41,140.27,110.36c0,36.44-22.45,68.74-57.06,88.84Z"/>
  <text class="cls-3" transform="translate(0 567.26)"><tspan class="cls-2" x="0" y="0">V</tspan><tspan x="65.16" y="0">ecini</tspan><tspan class="cls-1" x="316.52" y="0">App</tspan></text>
  <text/>
</svg>