<?xml version="1.0" encoding="UTF-8"?>
<svg id="Logo" xmlns="http://www.w3.org/2000/svg" viewBox="0 0 885.45 1012.56">
  <defs>
    <style>
      .cls-1 {
        font-family: Bahnschrift, Bahnschrift;
        font-size: 194.08px;
        font-variation-settings: 'wght' 400, 'wdth' 100;
      }

      .cls-2 {
        fill: #0d6efd;
      }

      .cls-3 {
        letter-spacing: -.04em;
      }
    </style>
  </defs>
  <path class="cls-2" d="m768.01,336.6l-72.49-71.06v-117.85c0-15.2-12.32-27.52-27.52-27.52h-38.37c-14.28,0-25.86,11.58-25.86,25.86v29.58L439.24,14.33c-9.74-9.55-22.41-14.33-35.08-14.33s-25.34,4.78-35.08,14.33L40.3,336.6c-13.34,13.08-17.45,32.93-10.38,50.23,7.06,17.3,23.89,28.6,42.58,28.6h17.5v254.39c0,26.26,21.29,47.54,47.54,47.54h533.25c26.26,0,47.54-21.29,47.54-47.54v-254.39h17.5c18.68,0,35.51-11.3,42.58-28.6,7.06-17.3,2.96-37.15-10.38-50.23Zm-229.27,264.21c3.5,42.39,30.17,72.4,30.17,72.4-53.08-14.15-79.06-36-89.77-47.61-23.48,6.47-48.7,10.03-74.98,10.03-125.3,0-226.87-79.91-226.87-178.49s101.57-178.49,226.87-178.49,226.87,79.91,226.87,178.49c0,58.93-36.32,111.17-92.28,143.68Z"/>
  <text class="cls-1" transform="translate(0 917.46)"><tspan class="cls-3" x="0" y="0">V</tspan><tspan x="105.38" y="0">ecini</tspan><tspan class="cls-2" x="511.93" y="0">App</tspan></text>
  <text/>
</svg>