<?xml version="1.0" encoding="UTF-8"?>
<svg id="Logo" xmlns="http://www.w3.org/2000/svg" viewBox="0 0 590 861.55">
  <defs>
    <style>
      .cls-1 {
        fill: #fff;
      }
    </style>
  </defs>
  <path class="cls-1" d="m579.23,281.09l-56.62-59.34v-98.41c0-12.69-9.63-22.99-21.5-22.99h-29.97c-11.15,0-20.2,9.67-20.2,21.59v24.7L322.41,11.96c-7.61-7.98-17.51-11.96-27.4-11.96s-19.79,3.99-27.4,11.96L10.78,281.09c-10.42,10.92-13.63,27.5-8.11,41.95,5.52,14.45,18.66,23.89,33.26,23.89h13.67v212.44c0,21.93,16.63,39.7,37.14,39.7h416.54c20.51,0,37.14-17.78,37.14-39.7v-212.44h13.67c14.6,0,27.74-9.44,33.26-23.89,5.52-14.45,2.31-31.02-8.11-41.95Zm-179.1,220.64c2.74,35.4,23.56,60.46,23.56,60.46-41.47-11.82-61.76-30.06-70.12-39.76-18.34,5.4-38.04,8.37-58.57,8.37-97.87,0-177.22-66.73-177.22-149.05s79.34-149.05,177.22-149.05,177.21,66.73,177.21,149.05c0,49.21-28.37,92.84-72.09,119.98Z"/>
  <text/>
</svg>